<?xml version="1.0" encoding="UTF-8"?>
<!DOCTYPE svg PUBLIC "-//W3C//DTD SVG 1.1//EN" "http://www.w3.org/Graphics/SVG/1.1/DTD/svg11.dtd">
<svg xmlns="http://www.w3.org/2000/svg" version="1.1" width="811px" height="811px" style="shape-rendering:geometricPrecision; text-rendering:geometricPrecision; image-rendering:optimizeQuality; fill-rule:evenodd; clip-rule:evenodd" xmlns:xlink="http://www.w3.org/1999/xlink">
<g><path style="opacity:1" fill="#f9faf9" d="M -0.5,-0.5 C 269.833,-0.5 540.167,-0.5 810.5,-0.5C 810.5,269.833 810.5,540.167 810.5,810.5C 540.167,810.5 269.833,810.5 -0.5,810.5C -0.5,540.167 -0.5,269.833 -0.5,-0.5 Z M 0.5,0.5 C 270.167,0.5 539.833,0.5 809.5,0.5C 809.5,270.167 809.5,539.833 809.5,809.5C 539.833,809.5 270.167,809.5 0.5,809.5C 0.5,539.833 0.5,270.167 0.5,0.5 Z"/></g>
<g><path style="opacity:1" fill="#64c7f9" d="M 215.5,35.5 C 342.167,35.3333 468.834,35.5 595.5,36C 680.743,48.0319 737.91,94.5319 767,175.5C 770.929,188.553 773.595,201.886 775,215.5C 775.667,342.167 775.667,468.833 775,595.5C 762.968,680.743 716.468,737.91 635.5,767C 622.447,770.929 609.114,773.595 595.5,775C 468.833,775.667 342.167,775.667 215.5,775C 130.257,762.968 73.09,716.468 44,635.5C 40.0715,622.447 37.4048,609.114 36,595.5C 35.3333,468.833 35.3333,342.167 36,215.5C 46.3065,139.678 85.8065,85.1784 154.5,52C 174.19,43.7285 194.524,38.2285 215.5,35.5 Z"/></g>
<g><path style="opacity:1" fill="#97d5f5" d="M 451.5,277.5 C 450.207,276.158 449.374,274.491 449,272.5C 448.5,237.502 448.333,202.502 448.5,167.5C 392.144,167.183 335.81,167.516 279.5,168.5C 279.918,167.778 280.584,167.278 281.5,167C 337.499,166.5 393.499,166.333 449.5,166.5C 449.333,201.168 449.5,235.835 450,270.5C 450.977,272.74 451.477,275.073 451.5,277.5 Z"/></g>
<g><path style="opacity:1" fill="#f9f9fa" d="M 451.5,277.5 C 456.565,289.535 465.565,296.535 478.5,298.5C 512.329,299.498 546.329,299.832 580.5,299.5C 580.5,329.5 580.5,359.5 580.5,389.5C 463.833,389.5 347.167,389.5 230.5,389.5C 230.5,332.5 230.5,275.5 230.5,218.5C 236.07,191.264 252.403,174.597 279.5,168.5C 335.81,167.516 392.144,167.183 448.5,167.5C 448.333,202.502 448.5,237.502 449,272.5C 449.374,274.491 450.207,276.158 451.5,277.5 Z"/></g>
<g><path style="opacity:1" fill="#f8f9f9" d="M 473.5,167.5 C 475.199,167.34 476.866,167.506 478.5,168C 512.576,202.412 546.743,236.245 581,269.5C 581.494,271.134 581.66,272.801 581.5,274.5C 547.498,274.667 513.498,274.5 479.5,274C 477.291,272.127 475.458,269.96 474,267.5C 473.5,234.168 473.333,200.835 473.5,167.5 Z"/></g>
<g><path style="opacity:1" fill="#c0ebfa" d="M 230.5,218.5 C 230.5,275.5 230.5,332.5 230.5,389.5C 347.167,389.5 463.833,389.5 580.5,389.5C 580.5,359.5 580.5,329.5 580.5,299.5C 546.329,299.832 512.329,299.498 478.5,298.5C 512.833,298.5 547.167,298.5 581.5,298.5C 581.5,329.167 581.5,359.833 581.5,390.5C 464.167,390.5 346.833,390.5 229.5,390.5C 229.168,332.998 229.501,275.664 230.5,218.5 Z"/></g>
<g><path style="opacity:1" fill="#f8f9f9" d="M 624.5,419.5 C 624.372,421.655 624.872,423.655 626,425.5C 626.5,462.832 626.667,500.165 626.5,537.5C 623.993,550.173 616.326,557.673 603.5,560C 470.833,560.667 338.167,560.667 205.5,560C 194.342,556.842 187.175,549.675 184,538.5C 183.333,500.167 183.333,461.833 184,423.5C 187.988,413.74 195.155,407.573 205.5,405C 338.833,404.333 472.167,404.333 605.5,405C 614.085,407.108 620.418,411.941 624.5,419.5 Z"/></g>
<g><path style="opacity:1" fill="#c6ecf9" d="M 624.5,419.5 C 625.558,420.6 626.392,421.934 627,423.5C 627.831,461.669 627.664,499.669 626.5,537.5C 626.667,500.165 626.5,462.832 626,425.5C 624.872,423.655 624.372,421.655 624.5,419.5 Z"/></g>
<g><path style="opacity:1" fill="#6bc9f8" d="M 309.5,441.5 C 322.834,440.062 333.834,444.229 342.5,454C 339.326,457.341 336.326,460.841 333.5,464.5C 326.673,458.292 318.673,456.125 309.5,458C 308.069,458.465 306.903,459.299 306,460.5C 304.773,464.591 305.606,468.091 308.5,471C 317.88,474.57 326.88,478.903 335.5,484C 344.085,490.483 346.918,498.983 344,509.5C 340.575,519.254 333.742,525.087 323.5,527C 310.763,529.518 299.096,527.185 288.5,520C 284.99,518.093 283.824,515.26 285,511.5C 287.763,508.565 290.596,505.898 293.5,503.5C 297.453,506.817 301.786,509.65 306.5,512C 312.755,513.127 318.755,512.46 324.5,510C 328.41,505.925 328.41,501.925 324.5,498C 316.739,493.786 308.739,490.119 300.5,487C 287.179,478.362 284.012,466.862 291,452.5C 296.37,447.255 302.537,443.588 309.5,441.5 Z"/></g>
<g><path style="opacity:1" fill="#6ac8f8" d="M 507.5,510.5 C 508.651,505.35 508.817,500.016 508,494.5C 503.548,493.859 499.048,493.192 494.5,492.5C 493.415,489.227 493.248,485.894 494,482.5C 503.422,481.349 512.922,481.182 522.5,482C 523.488,494.086 523.822,506.253 523.5,518.5C 507.081,530.75 490.081,531.583 472.5,521C 458.606,505.693 454.44,487.86 460,467.5C 469.381,445.009 485.881,437.175 509.5,444C 513.929,446.102 518.095,448.602 522,451.5C 522.667,453.167 522.667,454.833 522,456.5C 519.588,458.571 517.588,460.904 516,463.5C 514.951,464.517 513.784,464.684 512.5,464C 504,456.484 494.667,455.484 484.5,461C 477.294,466.78 474.294,474.28 475.5,483.5C 474.577,495.482 478.91,504.982 488.5,512C 495.071,513.029 501.404,512.529 507.5,510.5 Z"/></g>
<g><path style="opacity:1" fill="#6ac8f8" d="M 366.5,442.5 C 371.844,442.334 377.177,442.501 382.5,443C 383,443.5 383.5,444 384,444.5C 389.566,464.295 395.232,483.961 401,503.5C 406.269,483.648 412.102,463.981 418.5,444.5C 423.792,443.505 429.125,443.172 434.5,443.5C 427.416,470.911 419.25,497.911 410,524.5C 407.106,525.78 403.939,526.446 400.5,526.5C 397.248,526.479 394.081,526.146 391,525.5C 383.47,499.721 375.47,474.055 367,448.5C 366.505,446.527 366.338,444.527 366.5,442.5 Z"/></g>
<g><path style="opacity:1" fill="#9ed9f5" d="M 523.5,518.5 C 523.822,506.253 523.488,494.086 522.5,482C 512.922,481.182 503.422,481.349 494,482.5C 493.248,485.894 493.415,489.227 494.5,492.5C 499.048,493.192 503.548,493.859 508,494.5C 508.817,500.016 508.651,505.35 507.5,510.5C 507.5,505.5 507.5,500.5 507.5,495.5C 502.786,495.827 498.12,495.493 493.5,494.5C 492.188,489.636 492.188,484.803 493.5,480C 503.744,479.181 513.91,479.348 524,480.5C 524.827,493.34 524.66,506.007 523.5,518.5 Z"/></g>
<g><path style="opacity:1" fill="#c0e7f3" d="M 580.5,586.5 C 580.5,582.5 580.5,578.5 580.5,574.5C 463.833,574.5 347.167,574.5 230.5,574.5C 230.5,578.5 230.5,582.5 230.5,586.5C 229.515,582.366 229.182,578.032 229.5,573.5C 346.833,573.5 464.167,573.5 581.5,573.5C 581.818,578.032 581.485,582.366 580.5,586.5 Z"/></g>
<g><path style="opacity:1" fill="#f9f9fa" d="M 580.5,586.5 C 577.41,615.095 562.076,633.595 534.5,642C 491.203,643.153 447.87,643.653 404.5,643.5C 361.13,643.653 317.797,643.153 274.5,642C 248.235,632.613 233.569,614.113 230.5,586.5C 230.5,582.5 230.5,578.5 230.5,574.5C 347.167,574.5 463.833,574.5 580.5,574.5C 580.5,578.5 580.5,582.5 580.5,586.5 Z"/></g>
</svg>
